<?xml version="1.0" encoding="UTF-8" standalone="no"?>
<svg
   width="700pt"
   height="700pt"
   viewBox="0 0 700 700"
   version="1.1"
   id="svg858"
   sodipodi:docname="logo_jnvs_medium_cyan.svg"
   inkscape:version="1.1.1 (3bf5ae0d25, 2021-09-20)"
   xmlns:inkscape="http://www.inkscape.org/namespaces/inkscape"
   xmlns:sodipodi="http://sodipodi.sourceforge.net/DTD/sodipodi-0.dtd"
   xmlns="http://www.w3.org/2000/svg"
   xmlns:svg="http://www.w3.org/2000/svg">
  <defs
     id="defs862" />
  <sodipodi:namedview
     id="namedview860"
     pagecolor="#ffffff"
     bordercolor="#999999"
     borderopacity="1"
     inkscape:pageshadow="0"
     inkscape:pageopacity="0"
     inkscape:pagecheckerboard="0"
     inkscape:document-units="pt"
     showgrid="false"
     inkscape:zoom="0.70710678"
     inkscape:cx="634.98189"
     inkscape:cy="473.05444"
     inkscape:window-width="1920"
     inkscape:window-height="1017"
     inkscape:window-x="1912"
     inkscape:window-y="-8"
     inkscape:window-maximized="1"
     inkscape:current-layer="svg858" />
  <path
     d="M 331.73551,29.014227 V 236.2395 q 0,53.00002 -28.64862,83.08111 -28.17119,29.60361 -78.30634,29.60361 -35.33335,0 -58.25227,-13.36937 -22.91893,-13.36937 -31.99101,-37.72074 -8.59459,-24.82883 -2.38739,-57.77479 l 35.33335,-7.16217 q -5.25225,40.5856 7.16217,60.63967 12.89189,19.57658 48.70272,19.57658 40.5856,0 55.38741,-21.96397 14.8018,-22.44145 14.8018,-64.45949 V 29.014227 Z"
     id="path21356"
     style="font-size:141.59px;line-height:1.25;font-family:'Work Sans';-inkscape-font-specification:'Work Sans';fill:#00eaff;fill-opacity:1;stroke-width:11.937" />
  <path
     d="M 607.52237,29.014227 V 344.14945 h -47.2703 L 428.46827,133.10432 395.04477,73.897127 h -0.4775 l 1.9099,47.747733 v 222.50459 h -36.2883 V 29.014227 h 47.2703 l 131.3064,210.090133 33.9009,60.63967 h 0.4775 l -1.9099,-48.22525 V 29.014227 Z"
     id="path21358"
     style="font-size:141.59px;line-height:1.25;font-family:'Work Sans';-inkscape-font-specification:'Work Sans';fill:#00eaff;fill-opacity:1;stroke-width:11.937" />
  <path
     d="M 396.47717,344.14945 277.10784,659.2847 H 238.43215 L 118.58526,344.14945 h 36.2883 l 80.21624,217.72981 24.82884,62.54957 20.05406,-62.07209 80.21617,-218.20729 z"
     id="path21360"
     style="font-size:141.59px;line-height:1.25;font-family:'Work Sans';-inkscape-font-specification:'Work Sans';fill:#00eaff;fill-opacity:1;stroke-width:11.937"
     sodipodi:nodetypes="cccccccccc" />
  <path
     d="m 497.36127,344.14945 q 40.408,0 69.669,16.72055 29.2609,16.25609 48.7682,48.30382 l -31.1188,24.15189 q -17.185,-29.72542 -39.0146,-41.80137 -21.3651,-12.5404 -52.0195,-12.5404 -24.6163,0 -40.8724,6.96687 -15.7917,6.96691 -23.223,18.5784 -7.4314,11.14702 -7.4314,25.54531 0,16.25609 10.2181,28.7965 10.2181,12.07594 40.8725,19.04285 l 66.4177,14.86271 q 44.1237,9.75365 61.3087,29.72542 17.6495,19.50729 17.6495,48.76828 0,26.00974 -14.8627,46.44598 -14.3983,19.97174 -40.8725,31.1188 -26.4742,11.14702 -62.2376,11.14702 -33.4411,0 -58.9864,-8.82472 -25.0808,-9.28921 -43.1947,-24.61638 -18.114,-15.32717 -29.7255,-34.37003 l 32.5122,-26.4742 q 8.8248,17.64948 22.7585,31.11881 13.9339,13.46932 33.4412,20.9007 19.9717,7.43133 45.517,7.43133 23.6875,0 40.8725,-5.57349 17.6495,-6.03799 26.9386,-17.18502 9.2893,-11.61151 9.2893,-27.86761 0,-14.86271 -9.7537,-26.47419 -9.7537,-12.07595 -36.6923,-18.11394 l -71.9913,-16.25609 q -28.332,-6.50242 -45.9815,-17.64947 -17.185,-11.61149 -25.0808,-26.93866 -7.4314,-15.79163 -7.4314,-33.90557 0,-24.61635 13.4693,-45.05259 13.9338,-20.9007 39.4791,-33.44111 26.0098,-12.5404 61.3087,-12.5404 z"
     id="path21362"
     style="font-size:141.59px;line-height:1.25;font-family:'Work Sans';-inkscape-font-specification:'Work Sans';fill:#00eaff;fill-opacity:1;stroke-width:11.6115" />
</svg>
