<?xml version="1.0" encoding="UTF-8" standalone="no"?>
<svg
   width="700pt"
   height="700pt"
   viewBox="0 0 700 700"
   version="1.1"
   id="svg858"
   sodipodi:docname="logo_jnvs_bold_white.svg"
   inkscape:version="1.1.1 (3bf5ae0d25, 2021-09-20)"
   xmlns:inkscape="http://www.inkscape.org/namespaces/inkscape"
   xmlns:sodipodi="http://sodipodi.sourceforge.net/DTD/sodipodi-0.dtd"
   xmlns="http://www.w3.org/2000/svg"
   xmlns:svg="http://www.w3.org/2000/svg">
  <defs
     id="defs862" />
  <sodipodi:namedview
     id="namedview860"
     pagecolor="#ffffff"
     bordercolor="#999999"
     borderopacity="1"
     inkscape:pageshadow="0"
     inkscape:pageopacity="0"
     inkscape:pagecheckerboard="0"
     inkscape:document-units="pt"
     showgrid="false"
     inkscape:zoom="0.35355339"
     inkscape:cx="1046.518"
     inkscape:cy="171.11984"
     inkscape:window-width="1920"
     inkscape:window-height="1017"
     inkscape:window-x="1912"
     inkscape:window-y="-8"
     inkscape:window-maximized="1"
     inkscape:current-layer="svg858" />
  <g
     id="g828"
     transform="matrix(0.95522122,0,0,0.95522122,1.9205025,0.82384633)">
    <path
       d="m 272.34323,18.39814 v 213.79197 q 0,57.7138 -32.11898,90.33464 -31.61719,32.11898 -88.3272,32.11898 -40.65066,0 -66.2454,-15.05577 -25.594883,-15.05577 -35.632065,-42.15617 -10.037182,-27.60225 -3.512944,-63.7361 l 51.691417,-9.53532 q -6.022309,43.15988 6.524232,63.7361 12.54641,20.07437 47.17476,20.07437 37.63937,0 51.69142,-21.57995 14.55398,-22.0818 14.55398,-64.23796 V 18.39814 Z"
       style="font-weight:500;font-size:360.95px;line-height:1.25;font-family:'Work Sans';-inkscape-font-specification:'Work Sans Medium';fill:#ffffff;fill-opacity:1;stroke-width:12.5465"
       id="path37479-6" />
    <path
       d="m 566.32763,18.39814 v 331.227 H 510.11955 C 455.59787,260.84067 400.00726,173.50534 350.02643,82.134245 h -0.50179 l 2.00744,267.490895 h -56.71015 v -331.227 h 63.23425 l 127.47221,208.27152 32.62077,59.72123 h 0.50193 l -2.00744,-54.20078 V 18.39814 Z"
       style="font-weight:500;font-size:360.95px;line-height:1.25;font-family:'Work Sans';-inkscape-font-specification:'Work Sans Medium';fill:#ffffff;fill-opacity:1;stroke-width:12.5465"
       id="path37481-9"
       sodipodi:nodetypes="ccccccccccccccc" />
    <path
       d="m 351.53208,349.62514 -122.95555,331.227 H 165.84422 L 42.88867,349.62514 h 57.21194 l 77.2863,220.31614 20.07436,65.74354 20.07436,-65.24168 77.2863,-220.818 z"
       style="font-weight:500;font-size:360.95px;line-height:1.25;font-family:'Work Sans';-inkscape-font-specification:'Work Sans Medium';fill:#ffffff;fill-opacity:1;stroke-width:12.5465"
       id="path37483-8" />
    <path
       d="m 432.01814,339.19726 q 44.66553,0 77.2863,17.06321 32.62091,16.56135 55.2045,49.18219 l -36.13385,34.62828 Q 509.30444,410.96311 485.2152,398.41663 461.6279,385.3683 429.00699,385.3683 q -24.08924,0 -39.6468,6.52416 -15.5577,6.52417 -23.08552,17.56507 -7.02603,10.53904 -7.02603,24.08924 0,15.55763 10.53897,27.10039 11.0409,11.54276 40.65066,18.06693 l 67.24912,15.05577 q 48.17847,10.53904 68.25283,32.11898 20.07437,21.57994 20.07437,54.70264 0,30.61341 -16.56142,53.19707 -16.56128,22.58366 -46.17104,34.62827 -29.10783,12.04462 -68.75462,12.04462 -35.13014,0 -63.23425,-9.03346 -28.10411,-9.03347 -49.18219,-24.5911 -21.07808,-15.55763 -34.62835,-35.63199 l 37.13758,-37.13758 q 10.53911,17.56507 26.5986,31.61713 16.05949,13.55019 37.13757,21.07808 21.57987,7.52789 47.67654,7.52789 23.08552,0 39.64694,-5.52045 17.06321,-5.52045 25.59475,-16.0595 9.03346,-11.0409 9.03346,-26.09667 0,-14.55391 -10.03718,-25.59481 -9.53526,-11.0409 -36.13386,-17.06321 l -72.7695,-16.56135 q -30.11154,-6.52417 -49.68412,-18.56879 -19.57243,-12.04462 -29.10782,-29.10782 -9.53526,-17.56507 -9.53526,-39.14501 0,-28.10411 15.05578,-50.68777 15.55756,-23.08552 44.66539,-36.63572 29.10782,-14.05205 69.25655,-14.05205 z"
       style="font-weight:500;font-size:360.95px;line-height:1.25;font-family:'Work Sans';-inkscape-font-specification:'Work Sans Medium';fill:#ffffff;fill-opacity:1;stroke-width:12.5465"
       id="path37485-8" />
  </g>
</svg>
