<?xml version="1.0" encoding="UTF-8" standalone="no"?>
<svg
   width="700pt"
   height="700pt"
   viewBox="0 0 700 700"
   version="1.1"
   id="svg858"
   sodipodi:docname="logo_jnvs_bold_cyan_white_sq.svg"
   inkscape:version="1.1.1 (3bf5ae0d25, 2021-09-20)"
   xmlns:inkscape="http://www.inkscape.org/namespaces/inkscape"
   xmlns:sodipodi="http://sodipodi.sourceforge.net/DTD/sodipodi-0.dtd"
   xmlns="http://www.w3.org/2000/svg"
   xmlns:svg="http://www.w3.org/2000/svg">
  <defs
     id="defs862" />
  <sodipodi:namedview
     id="namedview860"
     pagecolor="#ffffff"
     bordercolor="#999999"
     borderopacity="1"
     inkscape:pageshadow="0"
     inkscape:pageopacity="0"
     inkscape:pagecheckerboard="0"
     inkscape:document-units="pt"
     showgrid="false"
     inkscape:zoom="1"
     inkscape:cx="529"
     inkscape:cy="445.5"
     inkscape:window-width="1920"
     inkscape:window-height="1017"
     inkscape:window-x="1912"
     inkscape:window-y="-8"
     inkscape:window-maximized="1"
     inkscape:current-layer="svg858"
     inkscape:snap-text-baseline="true" />
  <path
     d="M 319.44867,76.687679 V 254.45829 q 0,47.98972 -26.70732,75.11435 -26.29007,26.70732 -73.44513,26.70732 -33.80152,0 -55.08385,-12.51906 -21.28246,-12.51905 -29.6285,-35.05337 -8.34603,-22.9516 -2.92105,-52.99733 l 42.98204,-7.92873 q -5.00763,35.88796 5.42498,52.99733 10.43248,16.69209 39.22638,16.69209 31.29759,0 42.98204,-17.944 12.10181,-18.36128 12.10181,-53.41464 V 76.687679 Z"
     style="font-weight:500;font-size:360.95px;line-height:1.25;font-family:'Work Sans';-inkscape-font-specification:'Work Sans Medium';fill:#ffffff;fill-opacity:1;stroke-width:10.4326"
     id="path37479-6" />
  <path
     d="M 556.40026,76.687669 V 352.10694 h -46.7377 C 464.32713,278.28158 418.10287,205.66119 376.5432,129.68502 h -0.41724 l 1.6692,222.42192 c -2.16225,3.97944 -44.49012,7.61085 -47.15517,0 V 76.687669 h 52.58004 l 105.99468,173.180301 27.12458,49.65892 h 0.41735 l -1.66921,-45.0686 V 76.687669 Z"
     style="font-weight:500;font-size:360.95px;line-height:1.25;font-family:'Work Sans';-inkscape-font-specification:'Work Sans Medium';fill:#ffffff;fill-opacity:1;stroke-width:10.4326"
     id="path37481-9"
     sodipodi:nodetypes="ccccccccccccccc" />
  <path
     d="M 377.79516,352.10694 275.55613,627.5262 H 223.39346 L 121.15443,352.10694 h 47.57242 l 64.26449,183.19554 16.69208,54.66655 16.69207,-54.24925 64.2645,-183.61284 z"
     style="font-weight:500;font-size:360.95px;line-height:1.25;font-family:'Work Sans';-inkscape-font-specification:'Work Sans Medium';fill:#ffffff;fill-opacity:1;stroke-width:10.4326"
     id="path37483-8" />
  <path
     d="m 464.2203,347.93603 q 37.13993,0 64.26449,14.18827 27.12469,13.77096 45.90321,40.89558 l -30.04573,28.79384 q -15.85748,-24.20352 -35.88797,-34.63606 -19.61313,-10.84985 -46.73781,-10.84985 -20.0305,0 -32.96679,5.42492 -12.93642,5.42493 -19.19589,14.60557 -5.84223,8.76333 -5.84223,20.03049 0,12.93636 8.76327,22.5343 9.18065,9.59795 33.80153,15.02287 l 55.91845,12.51906 q 40.06098,8.76334 56.75306,26.70732 16.69208,17.94398 16.69208,45.48591 0,25.45542 -13.77102,44.23401 -13.77091,18.77858 -38.39179,28.79382 -24.2035,10.01525 -57.17029,10.01525 -29.21113,0 -52.58005,-7.51143 -23.3689,-7.51144 -40.89558,-20.4478 -17.52668,-12.93636 -28.79389,-29.62843 l 30.88034,-30.88035 q 8.7634,14.60557 22.11706,26.29003 13.35366,11.26715 30.88034,17.52668 17.94392,6.25953 39.64362,6.25953 19.19588,0 32.96691,-4.59033 14.18826,-4.59032 21.28234,-13.35366 7.51144,-9.18064 7.51144,-21.6997 0,-12.10175 -8.34604,-21.28239 -7.92868,-9.18064 -30.04574,-14.18827 L 430.4189,504.42425 q -25.03811,-5.42493 -41.31295,-15.44017 -16.27471,-10.01525 -24.20351,-24.20351 -7.92868,-14.60557 -7.92868,-32.54955 0,-23.36891 12.51906,-42.14749 12.9363,-19.1959 37.13982,-30.46305 24.2035,-11.68445 57.58766,-11.68445 z"
     style="font-weight:500;font-size:360.95px;line-height:1.25;font-family:'Work Sans';-inkscape-font-specification:'Work Sans Medium';fill:#ffffff;fill-opacity:1;stroke-width:10.4326"
     id="path37485-8" />
  <path
     id="rect2449-7"
     style="fill:#34bbff;fill-opacity:1;stroke-width:3.61906"
     d="M 27.277338,27.10695 V 677.10692 H 677.27734 V 27.10695 Z M 59.777337,59.606949 H 644.77734 V 644.60692 H 59.777337 Z" />
</svg>
