<?xml version="1.0" encoding="UTF-8" standalone="no"?>
<svg
   width="700pt"
   height="700pt"
   viewBox="0 0 700 700"
   version="1.1"
   id="svg858"
   sodipodi:docname="logo_jnvs_thin_white.svg"
   inkscape:version="1.1.1 (3bf5ae0d25, 2021-09-20)"
   xmlns:inkscape="http://www.inkscape.org/namespaces/inkscape"
   xmlns:sodipodi="http://sodipodi.sourceforge.net/DTD/sodipodi-0.dtd"
   xmlns="http://www.w3.org/2000/svg"
   xmlns:svg="http://www.w3.org/2000/svg">
  <defs
     id="defs862" />
  <sodipodi:namedview
     id="namedview860"
     pagecolor="#ffffff"
     bordercolor="#999999"
     borderopacity="1"
     inkscape:pageshadow="0"
     inkscape:pageopacity="0"
     inkscape:pagecheckerboard="0"
     inkscape:document-units="pt"
     showgrid="false"
     inkscape:zoom="0.35355339"
     inkscape:cx="715.59206"
     inkscape:cy="541.64379"
     inkscape:window-width="1920"
     inkscape:window-height="1017"
     inkscape:window-x="1912"
     inkscape:window-y="-8"
     inkscape:window-maximized="1"
     inkscape:current-layer="svg858" />
  <g
     id="g828"
     transform="matrix(0.99754815,0,0,0.99754815,0.17528052,0.03547312)">
    <path
       d="m 260.6342,14.46788 v 219.03689 q 0,49.87001 -24.93501,79.20532 -24.935,29.3353 -72.84932,29.3353 -32.75775,0 -54.2703,-13.20088 Q 87.067016,315.64362 77.777505,292.6643 68.976916,269.19605 73.866132,237.90507 l 13.200884,-4.88922 q -6.355981,47.4254 13.200884,72.36042 20.04579,24.44608 62.58197,24.44608 43.0251,0 63.55981,-26.40177 20.53471,-26.40178 20.53471,-71.87149 V 14.46788 Z"
       style="font-weight:200;font-size:360.95px;line-height:1.25;font-family:'Work Sans';-inkscape-font-specification:'Work Sans Ultra-Light';fill:#fdffff;fill-opacity:1;stroke-width:12.223"
       id="path41038-2" />
    <path
       d="M 572.14492,14.46788 V 337.15617 H 554.05476 L 357.01935,56.515141 340.39595,29.624451 h -0.48892 l 0.97784,31.779906 V 337.15617 H 326.21722 V 14.46788 h 19.06794 l 197.03548,280.64103 17.11232,27.37961 v 0 L 558.94397,290.2197 V 14.46788 Z"
       style="font-weight:200;font-size:360.95px;line-height:1.25;font-family:'Work Sans';-inkscape-font-specification:'Work Sans Ultra-Light';fill:#fdffff;fill-opacity:1;stroke-width:12.223"
       id="path41040-2"
       sodipodi:nodetypes="ccccccccccccccccc" />
    <path
       d="M 340.88487,337.15617 214.74309,659.84447 H 197.63076 L 71.48898,337.15617 H 86.156629 L 191.7637,606.55199 206.43135,646.15466 221.099,606.55199 326.21722,337.15617 Z"
       style="font-weight:200;font-size:360.95px;line-height:1.25;font-family:'Work Sans';-inkscape-font-specification:'Work Sans Ultra-Light';fill:#fdffff;fill-opacity:1;stroke-width:12.223"
       id="path41042-7" />
    <path
       d="m 448.53183,335.31467 q 44.98079,0 75.29393,18.0901 30.80213,17.60118 43.51409,55.73707 l -11.24526,8.31167 q -11.24513,-36.1802 -39.11373,-52.80354 -27.37962,-17.11225 -69.42688,-17.11225 -30.80199,0 -53.29244,10.26735 -22.4904,10.26735 -34.7135,27.37961 -12.22298,16.62334 -12.22298,37.64697 0,26.40177 17.60118,43.0251 17.60118,16.13441 61.60418,25.42393 l 58.6706,12.22304 q 47.91432,10.26735 67.47118,28.35745 20.04572,18.0901 20.04572,47.91432 0,26.40177 -15.1565,46.44757 -14.66765,19.55687 -41.06942,30.80206 -26.40177,10.75628 -62.09311,10.75628 -33.73553,0 -61.11519,-9.28951 -27.37962,-9.28951 -45.95864,-27.86853 -18.09017,-18.57904 -24.93507,-45.95865 l 12.71196,-8.80059 q 4.88922,26.89069 21.51256,44.49188 17.11232,17.60118 42.04726,26.40177 25.42398,8.80059 56.22611,8.80059 29.33529,0 52.80353,-8.31167 23.46824,-8.80059 37.15805,-25.42392 14.17866,-17.11227 14.17866,-41.06943 0,-23.95716 -17.60118,-39.60266 -17.60118,-15.64549 -60.1373,-23.95716 L 421.6412,504.48156 q -31.78002,-6.8449 -51.33689,-17.60118 -19.06787,-11.2452 -28.35745,-26.40177 -8.80059,-15.64549 -8.80059,-36.66912 0,-23.46824 13.6898,-43.51403 14.1788,-20.04578 39.60272,-32.26882 25.91284,-12.71197 62.09304,-12.71197 z"
       style="font-weight:200;font-size:360.95px;line-height:1.25;font-family:'Work Sans';-inkscape-font-specification:'Work Sans Ultra-Light';fill:#fdffff;fill-opacity:1;stroke-width:12.223"
       id="path41044-5" />
  </g>
</svg>
