<?xml version="1.0" encoding="UTF-8" standalone="no"?>
<svg
   width="700pt"
   height="700pt"
   viewBox="0 0 700 700"
   version="1.1"
   id="svg858"
   sodipodi:docname="logo_jnvs_bold_black.svg"
   inkscape:version="1.1.1 (3bf5ae0d25, 2021-09-20)"
   xmlns:inkscape="http://www.inkscape.org/namespaces/inkscape"
   xmlns:sodipodi="http://sodipodi.sourceforge.net/DTD/sodipodi-0.dtd"
   xmlns="http://www.w3.org/2000/svg"
   xmlns:svg="http://www.w3.org/2000/svg">
  <defs
     id="defs862" />
  <sodipodi:namedview
     id="namedview860"
     pagecolor="#ffffff"
     bordercolor="#999999"
     borderopacity="1"
     inkscape:pageshadow="0"
     inkscape:pageopacity="0"
     inkscape:pagecheckerboard="0"
     inkscape:document-units="pt"
     showgrid="false"
     inkscape:zoom="0.35355339"
     inkscape:cx="330.92597"
     inkscape:cy="530.33009"
     inkscape:window-width="1920"
     inkscape:window-height="1017"
     inkscape:window-x="1912"
     inkscape:window-y="-8"
     inkscape:window-maximized="1"
     inkscape:current-layer="svg858" />
  <g
     id="g828"
     transform="matrix(0.9198736,0,0,0.9198736,58.590844,21.667538)"
     inkscape:export-filename="C:\Users\joaqu\Documents\Github\jv-portfolio-web-environment\logos\g828.png"
     inkscape:export-xdpi="110"
     inkscape:export-ydpi="110">
    <path
       d="M 281.16039,5.6702179 V 227.67749 q 0,59.93154 -33.3532,93.80588 -32.83213,33.3532 -91.72132,33.3532 -42.21272,0 -68.790984,-15.63431 Q 60.716479,323.56795 50.293601,295.42617 39.870725,266.76326 46.645667,229.24091 l 53.677743,-9.90172 q -6.253727,44.81836 6.77494,66.18526 13.02853,20.84575 48.98752,20.84575 39.08573,0 53.67774,-22.40919 15.11324,-22.93032 15.11324,-66.7064 V 5.6702179 Z"
       style="font-weight:500;font-size:360.95px;line-height:1.25;font-family:'Work Sans';-inkscape-font-specification:'Work Sans Medium';stroke-width:13.0287"
       id="path37479-6" />
    <path
       d="M 586.44161,5.6702179 V 349.62514 H 528.07363 C 471.45687,257.42899 413.7301,166.73766 361.82869,71.855483 h -0.52107 L 363.3922,349.62514 H 304.50287 V 5.6702179 H 370.167 L 502.53753,221.9449 536.4118,283.96101 h 0.52121 l -2.08458,-56.28352 V 5.6702179 Z"
       style="font-weight:500;font-size:360.95px;line-height:1.25;font-family:'Work Sans';-inkscape-font-specification:'Work Sans Medium';stroke-width:13.0287"
       id="path37481-9"
       sodipodi:nodetypes="ccccccccccccccc" />
    <path
       d="M 363.3922,349.62514 235.71189,693.58006 H 170.56898 L 42.88867,349.62514 h 59.4104 l 80.25614,228.78214 20.84576,68.26984 20.84574,-67.7487 80.25616,-229.30328 z"
       style="font-weight:500;font-size:360.95px;line-height:1.25;font-family:'Work Sans';-inkscape-font-specification:'Work Sans Medium';stroke-width:13.0287"
       id="path37483-8" />
    <path
       d="m 446.97106,338.79656 q 46.38187,0 80.25614,17.71889 33.87443,17.19774 57.32582,51.07209 l -37.52235,35.95892 q -19.80347,-30.22634 -44.81837,-43.25494 -24.49368,-13.54974 -58.36811,-13.54974 -25.0149,0 -41.17028,6.77487 -16.15554,6.77487 -23.97262,18.24004 -7.29601,10.94402 -7.29601,25.0149 0,16.15546 10.94393,28.14177 11.46518,11.9863 42.21274,18.76117 l 69.83326,15.63432 q 50.02981,10.94402 70.87557,33.3532 20.84575,22.40919 20.84575,56.80467 0,31.78979 -17.19782,55.24126 -17.19768,23.45147 -47.94524,35.95892 -30.22633,12.50745 -71.39662,12.50745 -36.48006,0 -65.66413,-9.38059 -29.18405,-9.38059 -51.07209,-25.53605 -21.88804,-16.15546 -35.95899,-37.0012 l 38.56464,-38.56466 q 10.94409,18.24004 27.6207,32.83207 16.67659,14.07088 38.56463,21.88804 22.40911,7.81717 49.5086,7.81717 23.97262,0 41.17044,-5.73259 17.71889,-5.73258 26.57825,-16.67661 9.3806,-11.46517 9.3806,-27.09948 0,-15.11317 -10.42288,-26.57833 -9.90166,-11.46516 -37.52236,-17.71889 l -75.56578,-17.19775 q -31.26862,-6.77487 -51.59332,-19.28232 -20.32453,-12.50745 -30.22632,-30.22633 -9.90168,-18.24004 -9.90168,-40.64923 0,-29.18405 15.63432,-52.63552 16.15538,-23.97261 46.38173,-38.04351 30.22634,-14.59201 71.91785,-14.59201 z"
       style="font-weight:500;font-size:360.95px;line-height:1.25;font-family:'Work Sans';-inkscape-font-specification:'Work Sans Medium';stroke-width:13.0287"
       id="path37485-8" />
  </g>
</svg>
